# xmcd
#
# Track frame offsets:
#	150
#	14956
#	29487
#	44761
#	61818
#	77190
#	94751
#	108723
#	120584
#	136249
#	148443
#	161690
#	176312
#	190250
#	216480
#
# Disc length: 4440 seconds
#
# Revision: 11
# Processed by: cddbd v1.5.2PL0 Copyright (c) Steve Scherf et al.
# Submitted via: dBpowerAMP V4.0
#
DISCID=e711560f
DTITLE=Edson and Hudson - Galera Coração
DYEAR=2005
DGENRE=Country
TTITLE0=Galera Coração
TTITLE1=É Amor Demais
TTITLE2=Tá No Meu Coração
TTITLE3=Por Trás da Chuva
TTITLE4=Solte a Garganta
TTITLE5=Não Tem Dia Não Tem Hora
TTITLE6=Chocolate Com Pimenta
TTITLE7=Chega Junto
TTITLE8=Amor é Ilusão
TTITLE9=Quantas Lembranças
TTITLE10=Abre a Janela
TTITLE11=Por Amar Essa Mulher
TTITLE12=Nossa História
TTITLE13=O Caldeirão Vai Ferver
TTITLE14=DATA
EXTD=
EXTT0=
EXTT1=
EXTT2=
EXTT3=
EXTT4=
EXTT5=
EXTT6=
EXTT7=
EXTT8=
EXTT9=
EXTT10=
EXTT11=
EXTT12=
EXTT13=
EXTT14=
PLAYORDER=
